<svg width="25" height="19" viewBox="0 0 25 19" fill="none" xmlns="http://www.w3.org/2000/svg">
<path d="M18.9515 9.89168C20.4747 9.00727 21.5018 7.35761 21.5018 5.47313C21.5018 2.65876 19.2122 0.369385 16.3978 0.369385C13.584 0.369385 11.2947 2.65876 11.2947 5.47313C11.2947 7.35761 12.3211 9.00763 13.8447 9.89109C12.95 10.2014 12.1319 10.6736 11.4177 11.2671C11.4177 11.2671 11.418 11.2671 11.4183 11.2665C10.8702 10.6099 10.1864 10.0705 9.4079 9.69491C10.295 8.94985 10.86 7.83293 10.86 6.58618C10.86 4.3486 9.03969 2.52833 6.80224 2.52833C4.56489 2.52833 2.74486 4.3486 2.74486 6.58618C2.74486 7.83293 3.3097 8.94985 4.1967 9.69491C2.18131 10.6677 0.787476 12.7321 0.787476 15.1166C0.787476 15.8517 1.38348 16.4475 2.11885 16.4475H8.63516C8.63541 16.4463 8.63541 16.4453 8.63574 16.4441C8.60645 16.7181 8.58642 16.9945 8.58642 17.2755C8.58642 18.0108 9.1822 18.6069 9.91743 18.6069H22.879C23.6143 18.6069 24.2104 18.011 24.2104 17.2755C24.2099 13.8616 22.009 10.952 18.9515 9.89168ZM12.6258 5.47313C12.6258 3.38965 14.3145 1.70028 16.3978 1.70028C18.4814 1.70028 20.1705 3.38965 20.1705 5.47313C20.1705 7.55672 18.4814 9.24611 16.3978 9.24611C14.3145 9.24611 12.6258 7.55672 12.6258 5.47313ZM4.07598 6.58618C4.07598 5.08043 5.29661 3.85898 6.80247 3.85898C8.30832 3.85898 9.52931 5.08043 9.52931 6.58618C9.52931 8.09251 8.30832 9.31336 6.80247 9.31336C5.29661 9.31336 4.07598 8.09251 4.07598 6.58618ZM8.8958 15.1166H2.11885C2.11885 12.5293 4.21591 10.4317 6.80247 10.4317C8.28641 10.4317 9.607 11.124 10.465 12.2007C10.467 12.1985 10.4693 12.1963 10.4709 12.1949C9.7508 13.0334 9.20974 14.027 8.8958 15.1166ZM9.91743 17.2755C9.91743 13.6962 12.8193 10.7942 16.3981 10.7942C19.9774 10.7942 22.879 13.6962 22.879 17.2755H9.91743Z" fill="white"/>
</svg>
