<svg width="25" height="27" viewBox="0 0 25 27" fill="none" xmlns="http://www.w3.org/2000/svg">
<path d="M4.88157 6.09176C4.54587 6.03335 3.9343 6.02397 3.04687 6.06357C2.61388 5.98304 2.38114 5.9056 2.34856 5.83117C3.13161 5.75055 3.76325 5.63312 4.2436 5.4788C4.42207 5.41528 4.58133 5.34051 4.72137 5.25461C5.48227 4.69937 5.95407 4.37548 6.13689 4.2829C6.31911 4.16243 6.72679 4.07558 7.35985 4.0225C7.06677 3.5199 6.85981 3.10902 6.7391 2.78993C6.60012 2.49896 6.58383 2.24347 6.69036 2.02351C6.89181 2.22966 7.13145 2.41528 7.40942 2.58039L7.85836 2.81254C8.1777 2.95704 8.53759 3.08101 8.93778 3.18449C9.73828 3.39133 10.7004 3.51589 11.8241 3.55833C11.5075 3.13609 11.2368 2.5737 11.012 1.87116C10.9229 1.49195 10.9389 1.16934 11.0597 0.903076L11.1943 1.20426C11.5267 1.95086 12.0257 2.55964 12.6912 3.03039C13.0642 3.29778 14.1351 3.86066 15.9043 4.71913C15.9236 4.44973 15.946 4.17379 15.9712 3.89137C16.0349 3.33414 16.1153 2.97976 16.2124 2.82825L16.2988 3.13247C16.4393 3.66685 16.6651 4.18504 16.9765 4.68673C17.3431 5.17376 17.6654 5.5654 17.9436 5.86188C18.9558 6.71841 19.4941 7.2113 19.5586 7.3402C19.7045 7.51845 20.0217 8.02834 20.5099 8.86973C20.6311 9.04447 20.7495 9.18673 20.8654 9.29678C21.1996 9.58201 21.5376 9.77068 21.8798 9.86302C22.0794 9.91353 22.6291 9.97142 23.5291 10.0365C23.7122 10.0688 23.8337 10.0982 23.8931 10.1247C24.1922 10.268 24.3587 10.4286 24.3922 10.6062C24.4244 10.7703 24.4325 10.8739 24.4165 10.9168C24.2777 11.2144 24.1811 11.3781 24.1271 11.4077C23.9595 11.595 23.7446 11.7286 23.4827 11.8086L23.386 11.9389C23.3347 11.9989 23.2809 12.0542 23.2251 12.1045C23.1698 12.1551 23.1002 12.2068 23.0165 12.2596C22.9414 12.3072 22.8818 12.3425 22.8377 12.3656C22.8116 12.3801 22.7915 12.3869 22.7774 12.3859C22.7627 12.3812 22.7643 12.358 22.783 12.3166L22.9616 11.9593C22.9855 11.9103 23.0062 11.8661 23.0242 11.8265L22.7598 11.634C22.7288 11.6583 22.682 11.6889 22.6192 11.7256C22.5247 11.7755 22.4354 11.8129 22.351 11.8378C22.3177 11.8489 22.295 11.8547 22.2828 11.8553C22.2747 11.8566 22.2671 11.8522 22.2603 11.8419C22.2581 11.8381 22.2641 11.825 22.279 11.8021C22.3418 11.7208 22.4097 11.6231 22.4828 11.5089C22.4925 11.494 22.5031 11.4762 22.5148 11.4555L22.4723 11.4247C22.3035 11.3151 22.1757 11.249 22.0891 11.2263C21.9113 11.1735 21.7707 11.1466 21.6672 11.1452C21.3553 11.1256 20.9797 11.1292 20.5405 11.156C20.4606 11.155 20.3661 11.1319 20.2571 11.0867L19.0552 10.1156C18.8896 9.99509 18.7642 9.92397 18.6791 9.90228C18.5381 9.85892 18.4216 9.83678 18.3295 9.83572C17.8066 9.88693 17.4626 9.89256 17.2974 9.8526L16.656 9.62737C16.6542 9.76051 16.6637 9.89125 16.6845 10.0196C16.7584 10.3602 16.8397 10.5976 16.9284 10.7313C16.9714 10.8112 17.0422 10.902 17.1409 11.004C17.8137 11.554 18.2166 11.9346 18.3497 12.1455C18.4916 12.334 18.6928 12.7245 18.9534 13.3168C19.0273 13.4401 19.0877 13.5258 19.1347 13.5742C19.2163 13.6541 19.2997 13.7162 19.3851 13.7605C19.4934 13.7328 19.608 13.7026 19.7289 13.6699C19.8412 13.6441 19.9178 13.6284 19.9583 13.6226H19.961C20.0082 13.6257 20.0121 13.6481 19.9724 13.6898C19.9155 13.7527 19.8674 13.8039 19.828 13.8436C20.0433 13.8342 20.2793 13.7701 20.5358 13.6515C20.5863 13.6503 20.6177 13.6614 20.6299 13.6849C20.6514 13.9697 20.6375 14.2049 20.5884 14.3903C20.5707 14.5563 20.4627 14.7237 20.2642 14.8927C20.2084 14.9724 19.8113 15.0769 19.0729 15.2066C18.2511 15.6185 17.8358 15.805 17.827 15.7664L18.1937 14.9083C18.2319 14.7794 18.2114 14.6237 18.1322 14.4412C18.0988 14.3144 17.8752 14.0674 17.4614 13.7002C17.1986 13.4849 16.8684 13.2554 16.4712 13.0116C15.8088 12.6595 15.2394 12.4728 14.7629 12.4514C14.5833 12.4332 14.3406 12.4323 14.0347 12.4487C13.6562 12.4683 13.08 12.5312 12.3062 12.6373C12.2098 12.6429 12.1555 12.6314 12.1433 12.6026C12.1021 12.4697 12.273 12.3023 12.656 12.1001C12.9471 11.9477 13.6484 11.6725 14.7596 11.2747C14.7834 11.2625 14.8065 11.2505 14.829 11.2387C13.7741 10.466 12.736 10.1196 11.7142 10.1991C11.6677 10.1163 12.0062 9.95137 12.73 9.70423C12.8204 9.61504 12.7944 9.54298 12.6518 9.4879C11.7755 9.15321 10.9738 8.99958 10.2465 9.02701C9.3988 9.10189 8.7729 9.38068 8.36907 9.86326C7.81442 10.5519 7.71189 11.2313 8.06122 11.902C8.25 12.3747 8.99578 13.03 10.2984 13.8678C10.9991 14.3131 11.9413 14.7697 13.125 15.2377C13.1911 15.268 13.3415 15.4218 13.5762 15.6991L14.5499 16.3043C15.3799 16.8222 16.0032 17.1392 16.4197 17.2551C16.4598 17.3049 16.4343 17.4194 16.3431 17.5987C16.3426 17.6456 16.3678 17.7008 16.4185 17.7644L18.516 19.8353C18.5819 19.9362 18.5418 20.1678 18.3953 20.53C19.0791 21.6597 19.508 22.5507 19.6819 23.2034L19.0369 23.3299C18.6711 23.9104 18.3936 24.2337 18.2046 24.3003C15.5406 24.6351 13.1051 25.2332 10.898 26.0945C10.6252 25.7203 10.4333 24.7393 10.3226 23.1508C9.87785 23.819 9.52676 24.2368 9.26918 24.404C9.33704 23.7337 9.24058 23.1634 8.97985 22.6927C8.8568 22.4533 8.73048 22.2451 8.60086 22.0681C8.21604 21.6158 7.88662 21.2136 7.61262 20.8613C7.85908 21.4429 7.98558 21.7974 7.99208 21.9248C8.04153 22.2516 7.94861 22.6362 7.71317 23.0783C7.62645 22.7471 7.31145 22.207 6.76828 21.4579L4.53786 18.9351L4.24959 18.4508L3.71332 17.456C3.74415 17.6913 3.75938 17.9162 3.75891 18.1305L3.74309 18.4442C3.72365 18.6481 3.68626 18.8415 3.63106 19.0245C3.52068 19.3905 3.33868 19.7146 3.08533 19.9971C3.17402 19.5512 3.16864 19.0047 3.06892 18.3578C3.04066 18.1673 2.78918 17.319 2.3147 15.8129C2.23138 15.4568 2.16199 15.0515 2.1068 14.5969C2.07035 14.2856 2.05501 13.922 2.06099 13.5064L2.13094 12.0814C2.085 12.0276 2.01786 12.0434 1.92928 12.1291L0.766882 13.2858C0.635392 13.3854 0.570232 13.3924 0.571177 13.3066C0.58524 12.9563 1.03279 11.6716 1.91344 9.45228C2.20148 8.78185 2.54555 8.20587 2.9454 7.72446C3.60697 6.99602 4.25231 6.45181 4.88157 6.09176Z" stroke="white" stroke-width="0.7" stroke-miterlimit="2" stroke-linejoin="round"/>
</svg>
