<svg width="27" height="27" viewBox="0 0 27 27" fill="none" xmlns="http://www.w3.org/2000/svg">
<path d="M22.0205 2.69995H6.6732C5.44542 2.69995 4.40527 3.74584 4.40527 4.968V19.7526H3.26844C2.95578 19.7526 2.69995 20.0084 2.69995 20.321V22.0376C2.69995 23.2825 3.71738 24.3 4.96226 24.3C4.96226 24.3 18.684 24.2943 18.7067 24.2943C19.9174 24.2487 20.8895 23.2542 20.8895 22.0319V9.52096H23.7314C24.0441 9.52096 24.3 9.26527 24.3 8.95261V4.968C24.3 3.71738 23.2825 2.69995 22.0205 2.69995ZM4.96226 23.163C4.34268 23.163 3.83679 22.6572 3.83679 22.0376V20.8895H16.3421V22.0433C16.3421 22.4303 16.4514 22.833 16.6434 23.1687L4.96226 23.163ZM19.9686 4.01316C19.8279 4.29486 19.7526 4.63576 19.7526 4.9509V22.0319C19.7526 22.6572 19.2467 23.163 18.61 23.163C17.9848 23.163 17.4789 22.6572 17.4789 22.0319V20.321C17.4789 20.0084 17.2231 19.7526 16.9105 19.7526H5.54211V4.968C5.54211 4.35089 6.05808 3.83679 6.6732 3.83679L20.0539 3.84252C20.0197 3.89936 19.9969 3.95608 19.9686 4.01316ZM23.163 8.38413H20.8895V4.97362C20.8895 4.35393 21.4024 3.85402 22.0263 3.84252C22.6377 3.83116 23.163 4.34749 23.163 4.968V8.38413Z" fill="white"/>
<path d="M12.2455 9.3546C12.4668 9.57575 12.8282 9.57562 13.0493 9.35449L14.7545 7.6493C14.9766 7.42722 14.9766 7.06745 14.7545 6.84551L13.0493 5.14019C12.8273 4.91811 12.4675 4.91811 12.2455 5.14019L10.5402 6.84551C10.3181 7.06745 10.3181 7.42722 10.5402 7.6493C10.5402 7.6493 12.2455 9.35449 12.2455 9.3546ZM12.6474 6.34594L13.5489 7.24734L12.6474 8.14887L11.746 7.24734L12.6474 6.34594Z" fill="white"/>
<path d="M7.24731 16.3422H18.0473C18.3615 16.3422 18.6158 16.0876 18.6158 15.7737C18.6158 15.4597 18.3615 15.2053 18.0473 15.2053H7.24731C6.93348 15.2053 6.67896 15.4597 6.67896 15.7737C6.67896 16.0876 6.93348 16.3422 7.24731 16.3422Z" fill="white"/>
<path d="M16.9105 17.479H8.38415C8.07032 17.479 7.8158 17.7335 7.8158 18.0474C7.8158 18.3613 8.07032 18.6158 8.38415 18.6158H16.9105C17.2247 18.6158 17.479 18.3613 17.479 18.0474C17.479 17.7335 17.2247 17.479 16.9105 17.479Z" fill="white"/>
<path d="M7.24731 11.7948H18.0473C18.3615 11.7948 18.6158 11.5404 18.6158 11.2264C18.6158 10.9125 18.3615 10.658 18.0473 10.658H7.24731C6.93348 10.658 6.67896 10.9125 6.67896 11.2264C6.67896 11.5404 6.93348 11.7948 7.24731 11.7948Z" fill="white"/>
<path d="M8.38415 12.9316C8.07032 12.9316 7.8158 13.1862 7.8158 13.5001C7.8158 13.8141 8.07032 14.0686 8.38415 14.0686H16.9105C17.2247 14.0686 17.479 13.8141 17.479 13.5001C17.479 13.1862 17.2247 12.9316 16.9105 12.9316H8.38415Z" fill="white"/>
</svg>
