<svg width="21" height="19" viewBox="0 0 21 19" fill="none" xmlns="http://www.w3.org/2000/svg">
<mask id="mask0_334_332" style="mask-type:luminance" maskUnits="userSpaceOnUse" x="0" y="0" width="21" height="19">
<path d="M20.4354 0.325439H0.55957V18.6999H20.4354V0.325439Z" fill="white"/>
</mask>
<g mask="url(#mask0_334_332)">
<path d="M15.8005 9.91225L15.8125 10.0021C15.8134 10.07 15.7969 10.1333 15.7628 10.1921L15.7075 10.2646C15.6736 10.3021 15.6324 10.3287 15.5843 10.3445C15.5437 10.3657 15.5005 10.376 15.4547 10.3755H15.4329C15.386 10.3754 15.3419 10.3644 15.3003 10.3425C15.2547 10.3274 15.2157 10.3021 15.1834 10.2665L15.1144 10.1974C15.0686 10.1515 15.0371 10.0973 15.0197 10.0349L15.0066 9.941C15.0059 9.87313 15.0225 9.80985 15.0567 9.75104L15.1118 9.67857C15.1457 9.64093 15.1869 9.61417 15.2351 9.5984C15.2793 9.57525 15.3262 9.56507 15.3759 9.56766C15.4265 9.56616 15.4742 9.57705 15.5192 9.6003C15.5647 9.61557 15.6037 9.64093 15.6361 9.67646L15.7048 9.74556C15.7506 9.79137 15.7823 9.84548 15.7998 9.90786L15.8005 9.91225ZM20.4475 8.88494V10.9567C20.4475 10.984 20.4461 11.0113 20.4435 11.0385C20.4408 11.0657 20.4367 11.0927 20.4314 11.1195C20.426 11.1462 20.4195 11.1727 20.4114 11.1988C20.4036 11.225 20.3944 11.2507 20.3838 11.2759C20.3733 11.3011 20.3618 11.3258 20.349 11.35C20.3361 11.374 20.3221 11.3975 20.307 11.4201C20.2918 11.4429 20.2756 11.4649 20.2581 11.486C20.2409 11.5071 20.2227 11.5274 20.2033 11.5467C20.1841 11.5661 20.1638 11.5844 20.1427 11.6018C20.1218 11.6192 20.1 11.6355 20.0772 11.6506C20.0546 11.6659 20.0312 11.68 20.007 11.693C19.9831 11.7059 19.9583 11.7176 19.9332 11.7281C19.9079 11.7387 19.8824 11.7479 19.8562 11.756C19.8301 11.7639 19.8037 11.7706 19.777 11.776C19.7502 11.7815 19.7232 11.7856 19.6961 11.7884C19.6689 11.7911 19.6417 11.7926 19.6143 11.7927H19.1313V17.4704C19.1313 17.5107 19.1292 17.5509 19.1254 17.5908C19.1213 17.6309 19.1154 17.6707 19.1075 17.71C19.0997 17.7495 19.0899 17.7886 19.078 17.8269C19.0663 17.8655 19.0529 17.9032 19.0374 17.9406C19.0221 17.9776 19.0048 18.014 18.986 18.0495C18.967 18.0849 18.9463 18.1192 18.9239 18.1528C18.9015 18.1861 18.8775 18.2185 18.8522 18.2496C18.8266 18.2806 18.7997 18.3103 18.7712 18.3389C18.7428 18.3672 18.7131 18.3943 18.6818 18.4198C18.651 18.4453 18.6186 18.4692 18.5852 18.4916C18.5517 18.5141 18.5174 18.5348 18.4819 18.5537C18.4465 18.5725 18.4101 18.5898 18.3731 18.6053C18.3359 18.6206 18.2979 18.6342 18.2596 18.6459C18.2211 18.6576 18.1822 18.6674 18.1428 18.6753C18.1034 18.6831 18.0636 18.6891 18.0236 18.6931C17.9836 18.6971 17.9434 18.699 17.9033 18.699H1.78764C1.74741 18.699 1.70727 18.6971 1.66723 18.6931C1.62721 18.6891 1.58748 18.6831 1.54805 18.6753C1.50861 18.6674 1.46958 18.6576 1.43116 18.6459C1.39261 18.634 1.35478 18.6204 1.31765 18.6051C1.28051 18.5898 1.24418 18.5723 1.20875 18.5534C1.17319 18.5346 1.13877 18.5137 1.10532 18.4914C1.07188 18.469 1.03964 18.4451 1.00859 18.4196C0.977442 18.3939 0.947695 18.3669 0.919348 18.3383C0.890885 18.3099 0.863841 18.28 0.838388 18.249C0.812819 18.2179 0.788976 18.1855 0.766609 18.1522C0.744241 18.1187 0.723579 18.0842 0.704624 18.0487C0.685649 18.0132 0.668475 17.9768 0.653104 17.9396C0.637732 17.9025 0.624162 17.8647 0.612566 17.8262C0.600894 17.7876 0.591119 17.7485 0.583222 17.7091C0.575344 17.6696 0.569441 17.6299 0.56555 17.5898C0.561564 17.5496 0.55957 17.5095 0.55957 17.4693V2.7021C0.559666 2.66367 0.560663 2.62514 0.56256 2.58669C0.564458 2.54827 0.567352 2.50993 0.571147 2.47169C0.574942 2.43336 0.579734 2.39524 0.585426 2.3571C0.591119 2.31907 0.597693 2.28114 0.605187 2.2434C0.612777 2.20566 0.621268 2.16813 0.630544 2.13089C0.639936 2.09356 0.650209 2.05643 0.661384 2.01969C0.672673 1.98285 0.684748 1.94632 0.697724 1.91007C0.710699 1.87385 0.724576 1.83801 0.739258 1.80247C0.754035 1.76692 0.769599 1.73169 0.786082 1.69694C0.802546 1.66221 0.819815 1.62777 0.837985 1.59392C0.856155 1.55999 0.875111 1.52645 0.894891 1.4935C0.914652 1.46046 0.935314 1.42801 0.956684 1.39597C0.978036 1.36403 1.00019 1.33258 1.02306 1.30163C1.04602 1.27079 1.06967 1.24045 1.09403 1.2107C1.11849 1.18095 1.14366 1.1518 1.16942 1.12334C1.19525 1.0948 1.22182 1.06695 1.24898 1.0397C1.27621 1.01254 1.30408 0.98599 1.33252 0.960134C1.36108 0.934278 1.39012 0.909208 1.41987 0.884752C1.44961 0.860295 1.47997 0.836644 1.51081 0.813778C1.54165 0.790816 1.5731 0.768659 1.60515 0.747308C1.6371 0.725841 1.66953 0.705275 1.70257 0.685515C1.73552 0.665639 1.76897 0.646683 1.80291 0.628608C1.83684 0.610438 1.87118 0.593074 1.90593 0.57659C1.94066 0.560126 1.9758 0.544544 2.01135 0.529785C2.04688 0.515008 2.08273 0.501227 2.11895 0.488155C2.1552 0.475179 2.19163 0.463085 2.22847 0.451911C2.26531 0.440737 2.30234 0.430444 2.33967 0.421072C2.37692 0.41168 2.41444 0.403189 2.45218 0.395714C2.4899 0.388124 2.52774 0.381531 2.56578 0.375839C2.60381 0.370146 2.64205 0.365469 2.68029 0.361578C2.71862 0.357783 2.75695 0.354985 2.79538 0.352992C2.83371 0.351094 2.87214 0.350098 2.91067 0.350098H16.2031C16.2433 0.350098 16.2834 0.352091 16.3233 0.356078C16.3634 0.360064 16.4031 0.365968 16.4425 0.373845C16.482 0.381742 16.5209 0.391613 16.5594 0.403304C16.5979 0.414977 16.6357 0.428547 16.6729 0.443919C16.71 0.459405 16.7462 0.476579 16.7817 0.495534C16.8171 0.514509 16.8515 0.535171 16.885 0.557539C16.9184 0.579887 16.9507 0.603845 16.9817 0.629414C17.0129 0.654867 17.0426 0.681911 17.0711 0.710354C17.0994 0.738721 17.1265 0.768563 17.1519 0.799613C17.1775 0.830759 17.2013 0.862998 17.2237 0.896443C17.2461 0.929889 17.2667 0.964313 17.2857 0.999752C17.3046 1.03519 17.3218 1.07153 17.3373 1.10868C17.3527 1.1458 17.3662 1.18364 17.3779 1.22218C17.3896 1.26061 17.3994 1.29963 17.4073 1.33908C17.4152 1.3785 17.421 1.41824 17.425 1.45826C17.429 1.4983 17.431 1.53843 17.4311 1.57866V2.07759H17.9033C17.9434 2.07759 17.9836 2.07958 18.0236 2.08357C18.0636 2.08758 18.1034 2.09356 18.1428 2.10145C18.1822 2.10933 18.2211 2.1191 18.2596 2.1308C18.2979 2.14247 18.3359 2.15606 18.3731 2.17143C18.4101 2.1869 18.4465 2.20407 18.4819 2.22303C18.5174 2.242 18.5517 2.26266 18.5852 2.28503C18.6186 2.30738 18.651 2.33134 18.6818 2.35691C18.7131 2.38236 18.7428 2.4094 18.7712 2.43787C18.7997 2.46631 18.8266 2.49606 18.8522 2.52711C18.8775 2.55825 18.9015 2.59049 18.9239 2.62394C18.9463 2.65738 18.967 2.69182 18.986 2.72726C19.0048 2.7628 19.0221 2.79902 19.0374 2.83617C19.0529 2.87341 19.0663 2.91113 19.078 2.94967C19.0899 2.9881 19.0997 3.02713 19.1075 3.06657C19.1154 3.106 19.1213 3.14573 19.1254 3.18577C19.1292 3.22579 19.1313 3.26592 19.1313 3.30615V8.05019H19.6143C19.6415 8.05019 19.6689 8.05159 19.696 8.05439C19.7232 8.05709 19.7502 8.06117 19.7768 8.06658C19.8037 8.07197 19.8301 8.07865 19.8562 8.08663C19.8823 8.09462 19.9079 8.1038 19.933 8.11429C19.9583 8.12477 19.9831 8.13644 20.007 8.14942C20.031 8.1623 20.0544 8.17639 20.0772 8.19155C20.0998 8.20673 20.1216 8.223 20.1427 8.24036C20.1638 8.25775 20.1839 8.27601 20.2033 8.29537C20.2227 8.31463 20.2409 8.33491 20.2581 8.35607C20.2756 8.37714 20.2917 8.3991 20.3068 8.42176C20.3219 8.44441 20.3359 8.46787 20.3488 8.49193C20.3618 8.51598 20.3733 8.54065 20.3838 8.56591C20.3942 8.59115 20.4034 8.61682 20.4114 8.64296C20.4193 8.66903 20.426 8.69548 20.4314 8.72223C20.4367 8.74909 20.4408 8.77603 20.4435 8.80319C20.4461 8.83035 20.4475 8.85759 20.4475 8.88494ZM1.3979 2.14138C1.52419 2.09816 1.65416 2.07688 1.78764 2.07759H16.6945V1.57866C16.6945 1.56258 16.6937 1.5465 16.6921 1.53044C16.6905 1.51447 16.6881 1.49849 16.685 1.48271C16.6818 1.46694 16.6779 1.45138 16.6732 1.436C16.6686 1.42054 16.6632 1.40545 16.657 1.39058C16.6508 1.37571 16.644 1.36114 16.6363 1.34696C16.6287 1.33277 16.6205 1.31901 16.6116 1.30563C16.6026 1.29225 16.5931 1.27928 16.5828 1.2669C16.5726 1.25442 16.5618 1.24254 16.5505 1.23106C16.5391 1.21967 16.5272 1.2089 16.5147 1.19872C16.5022 1.18852 16.4894 1.17894 16.476 1.16997C16.4626 1.16098 16.4488 1.1528 16.4347 1.14511C16.4205 1.13752 16.4059 1.13064 16.391 1.12455C16.3762 1.11836 16.3611 1.11297 16.3457 1.10827C16.3302 1.10358 16.3147 1.09959 16.2989 1.09649C16.2831 1.0933 16.2672 1.091 16.2512 1.08941C16.2352 1.0878 16.2191 1.08702 16.2031 1.0869H2.91067C2.86975 1.0869 2.82892 1.0884 2.7881 1.0915C2.74725 1.09459 2.70664 1.09928 2.6662 1.10538C2.62578 1.11157 2.58564 1.11935 2.54581 1.12853C2.50589 1.13783 2.46644 1.1485 2.42742 1.16077C2.38838 1.17306 2.34985 1.18674 2.31183 1.2019C2.27389 1.21708 2.23656 1.23376 2.19982 1.25172C2.16307 1.26979 2.12704 1.28915 2.09181 1.30993C2.05656 1.33068 2.02212 1.35284 1.98858 1.3762C1.95504 1.39957 1.9224 1.42422 1.89066 1.45017C1.85901 1.47602 1.82837 1.50309 1.79871 1.53134C1.76906 1.5595 1.74051 1.58884 1.71315 1.61918C1.68571 1.64964 1.65955 1.68097 1.63449 1.71342C1.60954 1.74576 1.58577 1.77911 1.56333 1.81334C1.54087 1.84749 1.51971 1.88253 1.49983 1.91837C1.48007 1.95419 1.46171 1.99063 1.44463 2.02787C1.42755 2.06511 1.41199 2.10295 1.3979 2.14138ZM18.3947 11.7927H15.5462C15.5156 11.7927 15.485 11.792 15.4544 11.7904C15.4238 11.7889 15.3933 11.7867 15.3628 11.7837C15.3324 11.7807 15.302 11.7769 15.2717 11.7724C15.2414 11.7679 15.2113 11.7627 15.1812 11.7568C15.1513 11.7508 15.1213 11.7441 15.0917 11.7366C15.062 11.7292 15.0325 11.721 15.0032 11.7121C14.9739 11.7032 14.9448 11.6937 14.916 11.6833C14.8872 11.673 14.8587 11.662 14.8303 11.6502C14.8021 11.6386 14.7741 11.6261 14.7465 11.613C14.7187 11.5999 14.6915 11.5862 14.6644 11.5718C14.6375 11.5573 14.6108 11.5422 14.5846 11.5265C14.5583 11.5107 14.5325 11.4943 14.507 11.4773C14.4815 11.4603 14.4565 11.4427 14.4319 11.4244C14.4074 11.4062 14.3832 11.3874 14.3596 11.3679C14.3359 11.3485 14.3127 11.3285 14.2901 11.3079C14.2673 11.2874 14.2452 11.2663 14.2236 11.2446C14.2019 11.223 14.1808 11.2008 14.1602 11.1781C14.1397 11.1554 14.1197 11.1322 14.1003 11.1086C14.0808 11.0849 14.0621 11.0608 14.0438 11.0361C14.0256 11.0116 14.008 10.9865 13.9909 10.961C13.9739 10.9356 13.9576 10.9097 13.9418 10.8835C13.9261 10.8572 13.9111 10.8306 13.8966 10.8035C13.8822 10.7766 13.8684 10.7492 13.8554 10.7215C13.8423 10.6938 13.8298 10.6658 13.8181 10.6375C13.8064 10.6092 13.7953 10.5807 13.7851 10.5518C13.7748 10.523 13.7651 10.4939 13.7562 10.4646C13.7473 10.4353 13.7392 10.4058 13.7318 10.3762C13.7244 10.3464 13.7177 10.3166 13.7117 10.2865C13.7057 10.2565 13.7004 10.2263 13.6959 10.196C13.6914 10.1657 13.6877 10.1353 13.6847 10.1048C13.6817 10.0744 13.6794 10.0438 13.6779 10.0133C13.6765 9.98263 13.6758 9.9521 13.6758 9.92145C13.6758 9.89081 13.6765 9.86016 13.6779 9.82961C13.6794 9.79905 13.6817 9.7685 13.6847 9.73797C13.6877 9.70751 13.6914 9.67717 13.6959 9.64681C13.7004 9.61657 13.7057 9.58642 13.7117 9.55639C13.7177 9.52633 13.7244 9.49649 13.7318 9.46674C13.7392 9.43709 13.7473 9.40754 13.7562 9.37819C13.7651 9.34894 13.7748 9.31989 13.7851 9.29104C13.7953 9.2622 13.8064 9.23364 13.8181 9.20529C13.8298 9.17704 13.8423 9.14909 13.8554 9.12134C13.8684 9.09368 13.8822 9.06633 13.8966 9.03929C13.9111 9.01232 13.9261 8.98568 13.9418 8.95942C13.9576 8.93316 13.9739 8.90731 13.9909 8.88185C14.008 8.8563 14.0256 8.83135 14.0438 8.80668C14.0621 8.78213 14.0808 8.75796 14.1003 8.73431C14.1197 8.71066 14.1397 8.68748 14.1602 8.66473C14.1808 8.64208 14.2019 8.6199 14.2236 8.59824C14.2452 8.57659 14.2673 8.55552 14.2901 8.53486C14.3127 8.51429 14.3359 8.49432 14.3596 8.47496C14.3832 8.45549 14.4074 8.43663 14.4319 8.41836C14.4565 8.40019 14.4815 8.38252 14.507 8.36556C14.5325 8.34848 14.5583 8.33211 14.5846 8.31634C14.6108 8.30066 14.6375 8.2856 14.6644 8.27111C14.6915 8.25664 14.7187 8.24286 14.7465 8.22978C14.7741 8.21671 14.8021 8.20433 14.8303 8.19254C14.8587 8.18087 14.8872 8.16989 14.916 8.15952C14.9448 8.14923 14.9739 8.13964 15.0032 8.13077C15.0325 8.12188 15.062 8.11369 15.0917 8.1062C15.1213 8.09882 15.1513 8.09213 15.1812 8.08613C15.2113 8.08015 15.2414 8.07486 15.2717 8.07036C15.302 8.06587 15.3324 8.06217 15.3628 8.05918C15.3933 8.05619 15.4238 8.05389 15.4544 8.0524C15.485 8.0509 15.5156 8.05019 15.5462 8.05019H18.3947V3.30615C18.3947 3.29007 18.394 3.27401 18.3924 3.25793C18.3907 3.24196 18.3884 3.22609 18.3851 3.21022C18.3821 3.19445 18.3782 3.17887 18.3735 3.1635C18.3689 3.14803 18.3633 3.13294 18.3572 3.11807C18.351 3.1032 18.3441 3.08863 18.3367 3.07445C18.329 3.06028 18.3207 3.0465 18.3117 3.03312C18.3027 3.01975 18.2931 3.00677 18.283 2.99439C18.2728 2.98191 18.2619 2.97003 18.2506 2.95866C18.2393 2.94728 18.2274 2.93639 18.2149 2.92621C18.2025 2.91604 18.1896 2.90645 18.1762 2.89746C18.1629 2.88857 18.1491 2.88029 18.1348 2.8727C18.1206 2.86511 18.1062 2.85823 18.0913 2.85204C18.0764 2.84585 18.0612 2.84046 18.0459 2.83577C18.0305 2.83107 18.0149 2.82718 17.9991 2.824C17.9834 2.8208 17.9674 2.8185 17.9514 2.81691C17.9355 2.8153 17.9194 2.81451 17.9033 2.81451H1.78764C1.77156 2.81451 1.75549 2.8153 1.73951 2.81691C1.72345 2.8185 1.70758 2.8208 1.6918 2.824C1.67603 2.82718 1.66045 2.83107 1.64507 2.83577C1.62961 2.84046 1.61452 2.84585 1.59965 2.85204C1.58478 2.85823 1.57031 2.86511 1.55603 2.8727C1.54186 2.88029 1.52808 2.88857 1.5147 2.89746C1.50132 2.90645 1.48844 2.91604 1.47597 2.92621C1.46359 2.93639 1.45161 2.94728 1.44024 2.95866C1.42895 2.97003 1.41806 2.98191 1.40789 2.99439C1.39771 3.00677 1.38813 3.01975 1.37914 3.03312C1.37026 3.0465 1.36196 3.06028 1.35439 3.07445C1.3468 3.08863 1.3399 3.1032 1.33371 3.11807C1.32754 3.13294 1.32214 3.14803 1.31744 3.1635C1.31276 3.17887 1.30887 3.19445 1.30577 3.21022C1.30257 3.22609 1.30017 3.24196 1.29858 3.25793C1.29699 3.27401 1.29618 3.29007 1.29618 3.30615V17.4693C1.29618 17.4854 1.29699 17.5015 1.29858 17.5176C1.30017 17.5335 1.30257 17.5494 1.30577 17.5653C1.30887 17.581 1.31276 17.5966 1.31744 17.6119C1.32214 17.6274 1.32754 17.6426 1.33371 17.6573C1.3399 17.6723 1.3468 17.6868 1.35439 17.701C1.36196 17.7152 1.37026 17.729 1.37914 17.7424C1.38813 17.7556 1.39771 17.7687 1.40789 17.7811C1.41806 17.7936 1.42886 17.8055 1.44024 17.8168C1.45161 17.8283 1.46359 17.839 1.47597 17.8494C1.48844 17.8595 1.50132 17.8691 1.5147 17.8781C1.52808 17.8869 1.54186 17.8952 1.55603 17.9028C1.57031 17.9103 1.58478 17.9172 1.59965 17.9233C1.61452 17.9297 1.62961 17.935 1.64507 17.9396C1.66045 17.9444 1.67603 17.9483 1.6918 17.9515C1.70758 17.9546 1.72345 17.9569 1.73951 17.9586C1.75549 17.9601 1.77156 17.9609 1.78764 17.9609H17.9033C17.9194 17.9609 17.9355 17.9601 17.9514 17.9586C17.9674 17.9569 17.9834 17.9548 17.9991 17.9515C18.0149 17.9483 18.0305 17.9444 18.0459 17.9396C18.0612 17.935 18.0764 17.9297 18.0913 17.9233C18.1062 17.9172 18.1206 17.9103 18.1348 17.9028C18.1491 17.8952 18.1629 17.8869 18.1762 17.8781C18.1896 17.8691 18.2025 17.8595 18.2149 17.8494C18.2274 17.839 18.2393 17.8283 18.2506 17.8168C18.2619 17.8055 18.2728 17.7936 18.283 17.7811C18.2931 17.7687 18.3027 17.7556 18.3117 17.7424C18.3207 17.729 18.329 17.7152 18.3367 17.701C18.3441 17.6868 18.351 17.6723 18.3572 17.6573C18.3635 17.6426 18.3689 17.6274 18.3735 17.6119C18.3782 17.5966 18.3821 17.581 18.3851 17.5653C18.3884 17.5494 18.3907 17.5335 18.3924 17.5176C18.394 17.5015 18.3947 17.4854 18.3947 17.4693V11.7927ZM19.7109 8.88494C19.7107 8.87208 19.708 8.8597 19.7029 8.84781C19.6977 8.83603 19.6908 8.82556 19.6816 8.81636C19.6726 8.80728 19.662 8.8002 19.6501 8.7951C19.6385 8.79012 19.626 8.78742 19.6132 8.78702H15.5462C15.5102 8.78872 15.4742 8.79211 15.4385 8.79719C15.4029 8.80229 15.3674 8.80908 15.3324 8.81757C15.2972 8.82594 15.2627 8.83614 15.2285 8.84791C15.1944 8.8596 15.161 8.87296 15.1281 8.88795C15.0953 8.90292 15.0632 8.91938 15.032 8.93746C15.0008 8.95543 14.9704 8.97489 14.941 8.99586C14.9115 9.01671 14.8832 9.03898 14.8559 9.06263C14.8287 9.08619 14.8025 9.11105 14.7776 9.13721C14.7527 9.16326 14.729 9.19051 14.7068 9.21886C14.6844 9.24723 14.6635 9.27657 14.644 9.30701C14.6244 9.33737 14.6064 9.36851 14.5899 9.40066C14.5733 9.4327 14.5583 9.46544 14.545 9.49898C14.5315 9.53252 14.5197 9.56656 14.5095 9.6012C14.4993 9.63585 14.4908 9.67089 14.4841 9.70633C14.4772 9.74177 14.4721 9.77749 14.4686 9.81333C14.4652 9.84927 14.4635 9.8853 14.4635 9.92145C14.4635 9.95749 14.4652 9.99352 14.4686 10.0295C14.4721 10.0654 14.4772 10.1011 14.4841 10.1366C14.4908 10.172 14.4993 10.2071 14.5095 10.2417C14.5197 10.2763 14.5315 10.3104 14.545 10.3439C14.5583 10.3774 14.5733 10.4102 14.5899 10.4422C14.6064 10.4743 14.6244 10.5055 14.644 10.5359C14.6635 10.5662 14.6844 10.5956 14.7068 10.6239C14.729 10.6523 14.7527 10.6795 14.7776 10.7057C14.8025 10.7317 14.8287 10.7566 14.8559 10.7803C14.8832 10.8039 14.9115 10.8262 14.941 10.847C14.9704 10.8679 15.0008 10.8874 15.032 10.9054C15.0632 10.9234 15.0953 10.94 15.1281 10.9548C15.161 10.9698 15.1944 10.9832 15.2285 10.995C15.2627 11.0068 15.2972 11.0168 15.3324 11.0253C15.3674 11.0338 15.4029 11.0406 15.4385 11.0457C15.4742 11.0508 15.5102 11.0541 15.5462 11.0558H19.6143C19.6271 11.055 19.6392 11.052 19.6509 11.0467C19.6626 11.0413 19.6728 11.0341 19.6818 11.0249C19.6908 11.0157 19.6977 11.0053 19.7027 10.9936C19.7078 10.9818 19.7105 10.9695 19.7109 10.9567V8.88494Z" fill="white"/>
</g>
</svg>
